<?xml version="1.0" standalone="no"?>
<!DOCTYPE svg PUBLIC "-//W3C//DTD SVG 20010904//EN"
 "http://www.w3.org/TR/2001/REC-SVG-20010904/DTD/svg10.dtd">
<svg version="1.0" xmlns="http://www.w3.org/2000/svg"
 width="260.000000pt" height="260.000000pt" viewBox="0 0 260.000000 260.000000"
 preserveAspectRatio="xMidYMid meet">
<metadata>
Created by potrace 1.11, written by Peter Selinger 2001-2013
</metadata>
<g transform="translate(0.000000,260.000000) scale(0.100000,-0.100000)"
fill="#000000" stroke="none">
<path d="M884 2110 c-164 -22 -268 -74 -389 -195 -130 -129 -186 -250 -201
-434 l-6 -76 -50 -30 c-65 -39 -149 -128 -182 -193 -132 -260 -3 -579 271
-674 l68 -23 910 0 910 0 59 23 c173 65 287 202 318 380 32 188 -67 395 -237
492 -47 27 -55 36 -75 92 -59 164 -177 276 -350 334 -78 26 -223 24 -310 -5
-80 -26 -75 -26 -88 3 -19 43 -142 164 -205 204 -139 86 -294 122 -443 102z
m452 -685 c167 -113 304 -209 304 -213 0 -7 -599 -413 -619 -420 -8 -3 -11
108 -11 417 1 284 4 421 11 421 6 0 147 -92 315 -205z"/>
</g>
</svg>
