<svg xmlns="http://www.w3.org/2000/svg" viewBox="0 0 1900 1195.72"><defs><style>.a{fill:#4caf50;}.b{fill:#fff;stroke:#fff;stroke-linejoin:round;}</style></defs><title>logo</title><path class="a" d="M1690.86,880.12c179.87,73.34,266.24,278.6,192.91,458.47a351.73,351.73,0,0,1-325.15,218.93H362.8c-194.24.66-352.25-156.26-352.91-350.5A351.69,351.69,0,0,1,222.12,882.94h0V854.1c0-271.94,220.55-492.35,492.49-492.3A492.4,492.4,0,0,1,1142.9,611.42a391.84,391.84,0,0,1,169.52-38.69A386.17,386.17,0,0,1,1690.86,880.12Z" transform="translate(-9.89 -361.8)"/><polygon class="b" points="743.32 351.61 743.32 970.62 1201.95 661.12 743.32 351.61"/></svg>